<svg width="100" height="114" viewBox="0 0 100 114" fill="none" xmlns="http://www.w3.org/2000/svg">
<path d="M4.23326 0.0303063C4.54937 0.0289291 4.86549 0.0275519 5.19118 0.0261329C6.25485 0.0227867 7.31837 0.0269006 8.38204 0.0309672C9.14278 0.0301263 9.90352 0.0288378 10.6643 0.0271338C12.7337 0.0238672 14.8031 0.0271446 16.8725 0.0317536C19.0344 0.0356662 21.1964 0.0342516 23.3584 0.0335739C26.9891 0.0332677 30.6199 0.0370885 34.2506 0.0434879C37.9888 0.050075 41.7269 0.0525274 45.465 0.0505943C49.9667 0.0482732 54.4683 0.0494092 58.97 0.0537489C60.6909 0.055362 62.4119 0.0556603 64.1328 0.054932C66.1575 0.0542813 68.1822 0.0570741 70.2069 0.0625763C70.9519 0.0640517 71.6969 0.0643379 72.4418 0.0633767C73.455 0.0622675 74.4681 0.0653891 75.4812 0.069645C75.7793 0.0683354 76.0774 0.0670258 76.3846 0.0656765C78.4136 0.0808609 78.4136 0.0808609 79.1827 0.85302C79.2677 1.87994 79.2677 1.87994 79.2657 3.22537C79.2663 3.47217 79.2669 3.71898 79.2675 3.97327C79.2687 4.80439 79.2649 5.63542 79.2611 6.46653C79.2609 7.06066 79.261 7.65478 79.2614 8.24891C79.2616 9.86545 79.2575 11.4819 79.2527 13.0985C79.2484 14.7865 79.248 16.4745 79.2472 18.1626C79.245 21.3607 79.2394 24.5588 79.2324 27.757C79.2247 31.3973 79.2209 35.0375 79.2175 38.6778C79.2102 46.1677 79.1981 53.6575 79.1827 61.1474C78.903 61.2829 78.6233 61.4184 78.3351 61.558C77.9657 61.7396 77.5962 61.9213 77.2156 62.1084C76.8505 62.2868 76.4853 62.4652 76.1091 62.649C72.6312 64.5291 70.4661 67.5126 69.1396 71.214C68.2367 74.4645 68.0915 77.6842 69.1733 80.899C69.2618 81.1732 69.3504 81.4475 69.4416 81.7301C70.8273 85.611 73.2787 88.1289 76.7667 90.255C77.1868 90.4473 77.6101 90.633 78.036 90.8122C78.4144 90.9713 78.7929 91.1305 79.1827 91.2945C79.2083 93.4469 79.2271 95.5991 79.2396 97.7516C79.2448 98.484 79.2519 99.2164 79.2608 99.9488C79.2734 101.001 79.2793 102.053 79.2838 103.105C79.2892 103.433 79.2945 103.761 79.3 104.099C79.3002 104.557 79.3002 104.557 79.3003 105.024C79.3037 105.427 79.3037 105.427 79.3072 105.838C79.1469 106.744 78.8522 107.005 78.1473 107.581C77.1104 107.683 76.145 107.721 75.1077 107.713C74.7932 107.715 74.4788 107.716 74.1548 107.718C73.0967 107.722 72.0387 107.719 70.9806 107.715C70.2239 107.717 69.4671 107.719 68.7103 107.721C66.6515 107.726 64.5928 107.724 62.5341 107.721C60.3829 107.718 58.2317 107.72 56.0805 107.722C52.2358 107.724 48.3911 107.721 44.5464 107.716C41.059 107.711 37.5716 107.712 34.0842 107.716C30.0364 107.722 25.9886 107.724 21.9408 107.721C19.7973 107.719 17.6539 107.719 15.5104 107.723C13.4956 107.726 11.4808 107.724 9.46603 107.718C8.72511 107.716 7.98417 107.717 7.24325 107.719C6.2347 107.722 5.22637 107.718 4.21783 107.713C3.92207 107.715 3.62631 107.718 3.32159 107.72C1.34745 107.7 1.34745 107.7 0.585746 107.164C-0.00845143 106.329 0.0130197 105.794 0.012481 104.771C0.0097808 104.403 0.00708071 104.034 0.00429868 103.655C0.00660849 103.249 0.00891819 102.843 0.011298 102.424C0.0096827 101.994 0.00806727 101.564 0.00640302 101.12C0.0029791 99.9234 0.00422287 98.7268 0.00742441 97.53C0.00976096 96.2403 0.00615405 94.9506 0.00330329 93.6609C-0.00130861 91.1334 -0.000303216 88.606 0.00269499 86.0785C0.00503046 84.025 0.005352 81.9715 0.00422363 79.9179C0.00406496 79.626 0.00390619 79.3341 0.00374272 79.0333C0.00341167 78.4403 0.00307613 77.8474 0.00273581 77.2544C-0.000219073 71.69 0.00318145 66.1255 0.00874172 60.5611C0.0133681 55.7833 0.0125647 51.0055 0.00779044 46.2277C0.00225311 40.6837 6.51553e-05 35.1396 0.003247 29.5955C0.00357686 29.0047 0.00390249 28.4138 0.00422363 27.823C0.00438337 27.5323 0.00454324 27.2416 0.00470783 26.942C0.00560305 24.8902 0.00409013 22.8384 0.00165615 20.7866C-0.00124352 18.2871 -0.000471533 15.7877 0.00505312 13.2883C0.00778034 12.0123 0.00883009 10.7364 0.00541651 9.46034C0.00177727 8.07911 0.00611329 6.69797 0.011298 5.31674C0.00898818 4.9106 0.00667849 4.50445 0.00429868 4.086C0.00699889 3.71763 0.00969898 3.34925 0.012481 2.96971C0.0126491 2.65067 0.0128174 2.33162 0.0129906 2.00291C0.142784 1.19954 0.142784 1.19954 0.585349 0.57724C1.65368 -0.174619 2.97364 0.0194811 4.23326 0.0303063Z" fill="#FEDECD"/>
<path d="M79.1827 91.641C80.0939 91.7554 81.0051 91.8697 81.944 91.9876C82.5764 92.0552 83.2092 92.1207 83.8423 92.1825C84.1377 92.2115 84.4331 92.2406 84.7375 92.2705C84.9547 92.2915 85.1718 92.3125 85.3955 92.3341C85.4482 94.695 85.4844 97.0558 85.5092 99.4172C85.5196 100.219 85.5337 101.022 85.5517 101.824C85.577 102.981 85.5886 104.137 85.5977 105.295C85.6084 105.65 85.6191 106.005 85.6301 106.371C85.6311 108.543 85.2461 109.95 84.0401 111.756C82.1664 113.527 80.1328 114.024 77.6246 113.992C77.2004 113.995 77.2004 113.995 76.7676 113.998C75.827 114.002 74.8866 113.997 73.946 113.992C73.2688 113.993 72.5917 113.995 71.9145 113.998C70.0804 114.003 68.2464 113.999 66.4123 113.993C64.4914 113.988 62.5706 113.99 60.6497 113.992C57.4251 113.993 54.2004 113.988 50.9758 113.98C47.2483 113.971 43.5208 113.97 39.7933 113.974C36.2055 113.978 32.6178 113.976 29.03 113.971C27.5039 113.969 25.9777 113.969 24.4516 113.971C22.6548 113.972 20.8582 113.969 19.0615 113.961C18.4023 113.959 17.743 113.959 17.0838 113.961C16.1838 113.963 15.284 113.959 14.3839 113.953C14.1233 113.955 13.8626 113.957 13.594 113.959C11.4708 113.933 10.1294 113.355 8.53431 111.977C7.30445 110.542 6.70069 109.489 6.70069 107.581C42.4084 107.409 42.4084 107.409 78.8376 107.234C79.0084 99.5157 79.0084 99.5157 79.1827 91.641Z" fill="#FEB4A6"/>
<path d="M91.8927 65.9689C94.3972 68.036 95.7692 70.5611 96.7855 73.6221C97.1473 77.4724 96.6121 80.7714 94.3627 83.9689C92.0842 86.6771 89.219 88.6475 85.626 88.9731C81.2475 88.9879 78.0775 87.9813 74.8036 85.0139C72.3047 82.4017 71.4532 78.9203 71.4079 75.4027C71.4903 72.2232 73.0155 69.379 75.1272 67.0382C79.9892 62.6772 86.4931 62.2948 91.8927 65.9689Z" fill="#D5E1FD"/>
<path d="M79.1827 6.74384C81.3544 6.74384 81.7256 6.83205 83.3246 8.12992C84.8944 9.75257 85.439 10.9695 85.437 13.2285C85.4375 13.641 85.4379 14.0536 85.4384 14.4786C85.4372 14.9317 85.4359 15.3849 85.4347 15.8517C85.4346 16.3332 85.4346 16.8148 85.4348 17.2963C85.4349 18.6042 85.4329 19.9122 85.4305 21.2201C85.4283 22.5867 85.4281 23.9533 85.4277 25.3199C85.4266 27.9081 85.4238 30.4963 85.4203 33.0845C85.4165 36.0309 85.4146 38.9774 85.4128 41.9238C85.4092 47.9851 85.4032 54.0465 85.3955 60.1078C84.6839 60.225 83.9719 60.3401 83.2598 60.4543C82.8634 60.5186 82.467 60.583 82.0586 60.6492C80.9085 60.8008 80.9085 60.8008 79.1827 60.8008C79.1827 42.962 79.1827 25.1232 79.1827 6.74384Z" fill="#FEB4A6"/>
<path d="M14.4383 80.4628C14.9117 80.4595 14.9117 80.4595 15.3947 80.4561C15.7362 80.4575 16.0778 80.4589 16.4297 80.4604C16.7795 80.4597 17.1293 80.4591 17.4897 80.4584C18.2301 80.4579 18.9706 80.4592 19.711 80.4621C20.8473 80.4658 21.9834 80.4621 23.1197 80.4577C23.8379 80.4581 24.5561 80.459 25.2742 80.4604C25.6158 80.459 25.9574 80.4576 26.3093 80.4561C26.6249 80.4583 26.9404 80.4605 27.2656 80.4628C27.6833 80.4636 27.6833 80.4636 28.1094 80.4644C28.7905 80.5524 28.7905 80.5524 29.4808 81.2455C29.5684 81.9293 29.5684 81.9293 29.5701 82.7764C29.5723 83.0932 29.5745 83.4101 29.5767 83.7365C29.5753 84.0794 29.5739 84.4223 29.5725 84.7756C29.5735 85.3024 29.5735 85.3024 29.5745 85.8398C29.5749 86.5832 29.5737 87.3266 29.5708 88.0699C29.5671 89.2107 29.5707 90.3514 29.5752 91.4922C29.5747 92.2132 29.5738 92.9342 29.5725 93.6552C29.5739 93.9981 29.5753 94.341 29.5767 94.6943C29.5745 95.0112 29.5723 95.328 29.5701 95.6544C29.5696 95.934 29.569 96.2135 29.5684 96.5015C29.4808 97.1854 29.4808 97.1854 28.7905 97.8784C28.1094 97.9664 28.1094 97.9664 27.2656 97.9681C26.7922 97.9713 26.7922 97.9713 26.3093 97.9747C25.9677 97.9733 25.6261 97.9719 25.2742 97.9704C24.9244 97.9711 24.5746 97.9718 24.2143 97.9724C23.4738 97.9729 22.7334 97.9716 21.9929 97.9687C20.8566 97.965 19.7205 97.9687 18.5842 97.9731C17.866 97.9727 17.1479 97.9718 16.4297 97.9704C16.0881 97.9718 15.7466 97.9732 15.3947 97.9747C15.0791 97.9725 14.7635 97.9703 14.4383 97.9681C14.1599 97.9675 13.8815 97.967 13.5946 97.9664C12.9135 97.8784 12.9135 97.8784 12.2231 97.1854C12.1355 96.5015 12.1355 96.5015 12.1338 95.6544C12.1317 95.3376 12.1295 95.0208 12.1272 94.6943C12.1286 94.3514 12.13 94.0085 12.1315 93.6552C12.1308 93.304 12.1301 92.9528 12.1295 92.591C12.129 91.8476 12.1303 91.1043 12.1332 90.3609C12.1368 89.2201 12.1332 88.0795 12.1288 86.9387C12.1292 86.2177 12.1301 85.4966 12.1315 84.7756C12.1301 84.4327 12.1287 84.0898 12.1272 83.7365C12.1294 83.4197 12.1316 83.1028 12.1338 82.7764C12.1344 82.4968 12.1349 82.2173 12.1355 81.9293C12.3212 80.4804 13.1982 80.4652 14.4383 80.4628Z" fill="#4C5355"/>
<path d="M14.4383 56.8995C14.9117 56.8962 14.9117 56.8962 15.3947 56.8928C15.7362 56.8942 16.0778 56.8956 16.4297 56.8971C16.7795 56.8964 17.1293 56.8958 17.4897 56.8951C18.2301 56.8946 18.9706 56.8959 19.711 56.8988C20.8473 56.9025 21.9834 56.8988 23.1197 56.8944C23.8379 56.8948 24.5561 56.8957 25.2742 56.8971C25.6158 56.8957 25.9574 56.8943 26.3093 56.8928C26.6249 56.895 26.9404 56.8972 27.2656 56.8995C27.6833 56.9003 27.6833 56.9003 28.1094 56.9011C28.7905 56.9891 28.7905 56.9891 29.4808 57.6822C29.5684 58.366 29.5684 58.366 29.5701 59.2131C29.5723 59.5299 29.5745 59.8468 29.5767 60.1732C29.5753 60.5161 29.5739 60.859 29.5725 61.2123C29.5735 61.7391 29.5735 61.7391 29.5745 62.2765C29.5749 63.0199 29.5737 63.7633 29.5708 64.5066C29.5671 65.6474 29.5707 66.788 29.5752 67.9288C29.5747 68.6499 29.5738 69.3709 29.5725 70.0919C29.5739 70.4348 29.5753 70.7777 29.5767 71.131C29.5745 71.4479 29.5723 71.7647 29.5701 72.0911C29.5696 72.3707 29.569 72.6502 29.5684 72.9382C29.4808 73.622 29.4808 73.622 28.7905 74.3151C28.1094 74.4031 28.1094 74.4031 27.2656 74.4048C26.7922 74.408 26.7922 74.408 26.3093 74.4114C25.9677 74.41 25.6261 74.4086 25.2742 74.4071C24.9244 74.4078 24.5746 74.4085 24.2143 74.4091C23.4738 74.4096 22.7334 74.4083 21.9929 74.4054C20.8566 74.4017 19.7205 74.4054 18.5842 74.4098C17.866 74.4094 17.1479 74.4085 16.4297 74.4071C16.0881 74.4085 15.7466 74.4099 15.3947 74.4114C15.0791 74.4092 14.7635 74.407 14.4383 74.4048C14.1599 74.4042 13.8815 74.4037 13.5946 74.4031C12.9135 74.3151 12.9135 74.3151 12.2231 73.622C12.1355 72.9382 12.1355 72.9382 12.1338 72.0911C12.1317 71.7743 12.1295 71.4575 12.1272 71.131C12.1286 70.7881 12.13 70.4452 12.1315 70.0919C12.1308 69.7407 12.1301 69.3895 12.1295 69.0277C12.129 68.2843 12.1303 67.541 12.1332 66.7976C12.1368 65.6568 12.1332 64.5162 12.1288 63.3754C12.1292 62.6544 12.1301 61.9333 12.1315 61.2123C12.1301 60.8694 12.1287 60.5265 12.1272 60.1732C12.1294 59.8564 12.1316 59.5395 12.1338 59.2131C12.1344 58.9335 12.1349 58.654 12.1355 58.366C12.3212 56.9171 13.1982 56.9019 14.4383 56.8995Z" fill="#4B5355"/>
<path d="M14.4383 33.3361C14.9117 33.3329 14.9117 33.3329 15.3947 33.3295C15.7362 33.3309 16.0778 33.3323 16.4297 33.3338C16.7795 33.3331 17.1293 33.3325 17.4897 33.3318C18.2301 33.3313 18.9706 33.3326 19.711 33.3355C20.8473 33.3392 21.9834 33.3355 23.1197 33.3311C23.8379 33.3315 24.5561 33.3324 25.2742 33.3338C25.6158 33.3324 25.9574 33.331 26.3093 33.3295C26.6249 33.3317 26.9404 33.3339 27.2656 33.3361C27.6833 33.337 27.6833 33.337 28.1094 33.3378C28.7905 33.4258 28.7905 33.4258 29.4808 34.1189C29.5684 34.8027 29.5684 34.8027 29.5701 35.6498C29.5723 35.9666 29.5745 36.2834 29.5767 36.6099C29.5753 36.9528 29.5739 37.2957 29.5725 37.649C29.5735 38.1758 29.5735 38.1758 29.5745 38.7132C29.5749 39.4566 29.5737 40.2 29.5708 40.9433C29.5671 42.0841 29.5707 43.2247 29.5752 44.3655C29.5747 45.0866 29.5738 45.8076 29.5725 46.5286C29.5739 46.8715 29.5753 47.2144 29.5767 47.5677C29.5745 47.8846 29.5723 48.2014 29.5701 48.5278C29.5696 48.8074 29.569 49.0869 29.5684 49.3749C29.4808 50.0587 29.4808 50.0587 28.7905 50.7518C28.1094 50.8398 28.1094 50.8398 27.2656 50.8415C26.7922 50.8447 26.7922 50.8447 26.3093 50.8481C25.9677 50.8467 25.6261 50.8453 25.2742 50.8438C24.9244 50.8445 24.5746 50.8452 24.2143 50.8458C23.4738 50.8463 22.7334 50.845 21.9929 50.8421C20.8566 50.8384 19.7205 50.8421 18.5842 50.8465C17.866 50.8461 17.1479 50.8452 16.4297 50.8438C16.0881 50.8452 15.7466 50.8466 15.3947 50.8481C15.0791 50.8459 14.7635 50.8437 14.4383 50.8415C14.1599 50.8409 13.8815 50.8404 13.5946 50.8398C12.9135 50.7518 12.9135 50.7518 12.2231 50.0587C12.1355 49.3749 12.1355 49.3749 12.1338 48.5278C12.1317 48.211 12.1295 47.8942 12.1272 47.5677C12.1286 47.2248 12.13 46.8819 12.1315 46.5286C12.1308 46.1774 12.1301 45.8262 12.1295 45.4644C12.129 44.721 12.1303 43.9776 12.1332 43.2343C12.1368 42.0935 12.1332 40.9529 12.1288 39.8121C12.1292 39.091 12.1301 38.37 12.1315 37.649C12.1301 37.3061 12.1287 36.9632 12.1272 36.6099C12.1294 36.293 12.1316 35.9762 12.1338 35.6498C12.1344 35.3702 12.1349 35.0907 12.1355 34.8027C12.3212 33.3538 13.1982 33.3386 14.4383 33.3361Z" fill="#4C5355"/>
<path d="M14.4383 9.77284C14.9117 9.76956 14.9117 9.76956 15.3947 9.76622C15.7362 9.76762 16.0778 9.76903 16.4297 9.77047C16.7795 9.76981 17.1293 9.76914 17.4897 9.76846C18.2301 9.76799 18.9706 9.76927 19.711 9.77216C20.8473 9.77587 21.9834 9.7722 23.1197 9.76776C23.8379 9.76822 24.5561 9.76911 25.2742 9.77047C25.6158 9.76907 25.9574 9.76767 26.3093 9.76622C26.6249 9.7684 26.9404 9.77059 27.2656 9.77284C27.6833 9.77367 27.6833 9.77367 28.1094 9.77451C28.7905 9.86252 28.7905 9.86252 29.4808 10.5556C29.5684 11.2394 29.5684 11.2394 29.5701 12.0865C29.5723 12.4033 29.5745 12.7201 29.5767 13.0466C29.5753 13.3895 29.5739 13.7324 29.5725 14.0857C29.5735 14.6125 29.5735 14.6125 29.5745 15.1499C29.5749 15.8933 29.5737 16.6366 29.5708 17.38C29.5671 18.5208 29.5707 19.6614 29.5752 20.8022C29.5747 21.5232 29.5738 22.2443 29.5725 22.9653C29.5739 23.3082 29.5753 23.6511 29.5767 24.0044C29.5745 24.3212 29.5723 24.6381 29.5701 24.9645C29.5696 25.2441 29.569 25.5236 29.5684 25.8116C29.4808 26.4954 29.4808 26.4954 28.7905 27.1885C28.1094 27.2765 28.1094 27.2765 27.2656 27.2782C26.7922 27.2814 26.7922 27.2814 26.3093 27.2848C25.9677 27.2834 25.6261 27.282 25.2742 27.2805C24.9244 27.2812 24.5746 27.2818 24.2143 27.2825C23.4738 27.283 22.7334 27.2817 21.9929 27.2788C20.8566 27.2751 19.7205 27.2788 18.5842 27.2832C17.866 27.2828 17.1479 27.2819 16.4297 27.2805C16.0881 27.2819 15.7466 27.2833 15.3947 27.2848C15.0791 27.2826 14.7635 27.2804 14.4383 27.2782C14.1599 27.2776 13.8815 27.277 13.5946 27.2765C12.9135 27.1885 12.9135 27.1885 12.2231 26.4954C12.1355 25.8116 12.1355 25.8116 12.1338 24.9645C12.1317 24.6477 12.1295 24.3308 12.1272 24.0044C12.1286 23.6615 12.13 23.3186 12.1315 22.9653C12.1308 22.6141 12.1301 22.2629 12.1295 21.9011C12.129 21.1577 12.1303 20.4143 12.1332 19.671C12.1368 18.5302 12.1332 17.3896 12.1288 16.2488C12.1292 15.5277 12.1301 14.8067 12.1315 14.0857C12.1301 13.7428 12.1287 13.3999 12.1272 13.0466C12.1294 12.7297 12.1316 12.4129 12.1338 12.0865C12.1344 11.8069 12.1349 11.5274 12.1355 11.2394C12.3212 9.79053 13.1982 9.7753 14.4383 9.77284Z" fill="#4C5455"/>
<path d="M91.9534 62.1869C92.1674 62.3107 92.3814 62.4344 92.6019 62.5619C93.0936 62.8724 93.5609 63.2212 94.0243 63.573C94.4514 63.8732 94.4514 63.8732 94.8872 64.1794C97.3742 66.4266 99.6914 69.9006 99.9475 73.3266C99.9633 74.1976 99.9731 75.0683 99.9782 75.9394C99.9853 76.2376 99.9924 76.5357 99.9997 76.8429C100.025 81.0484 98.25 84.7816 95.4305 87.8578C91.5612 91.4498 87.5432 92.233 82.4617 92.0837C78.3629 91.8795 74.9609 90.0248 72.1502 87.028C69.0948 83.3507 67.811 79.0517 68.1378 74.3151C68.761 69.9704 70.7432 66.3898 74.089 63.5649C79.2313 59.8648 86.3418 58.9154 91.9534 62.1869ZM74.2859 68.1427C72.067 70.9441 71.3159 73.637 71.4424 77.205C71.8905 81.0722 73.7638 84.3403 76.7667 86.7898C80.0066 88.7669 83.0048 89.2087 86.7761 88.8689C90.133 88.0335 93.0657 86.0626 94.9424 83.1189C96.7029 79.6973 97.4554 76.3188 96.5078 72.504C95.2947 69.2535 93.2658 66.5683 90.1629 64.9591C89.6163 64.7116 89.062 64.4806 88.5018 64.266C88.1739 64.1401 87.846 64.0141 87.5082 63.8843C82.3854 62.4039 77.7904 64.4005 74.2859 68.1427Z" fill="#D62D68"/>
<path d="M40.2695 40.6519C40.5803 40.6521 40.891 40.6522 41.2111 40.6524C41.5366 40.6512 41.8621 40.6501 42.1975 40.6489C43.2792 40.6456 44.361 40.6449 45.4427 40.6445C46.1912 40.6434 46.9397 40.6422 47.6882 40.641C49.2594 40.6389 50.8306 40.6383 52.4018 40.6385C54.4195 40.6385 56.4372 40.6338 58.4549 40.6279C60.0014 40.624 61.5478 40.6233 63.0943 40.6235C63.8384 40.6231 64.5825 40.6215 65.3266 40.6189C66.3655 40.6155 67.4043 40.6165 68.4431 40.6185C68.7532 40.6166 69.0632 40.6147 69.3826 40.6126C71.5106 40.6236 71.5106 40.6236 72.2797 41.3958C72.0879 42.9743 72.0879 42.9744 71.5894 43.4749C70.553 43.5116 69.5244 43.5257 68.4878 43.5252C67.9996 43.527 67.9996 43.527 67.5015 43.5287C66.4197 43.532 65.338 43.5327 64.2562 43.5331C63.5078 43.5342 62.7593 43.5354 62.0108 43.5366C60.4396 43.5387 58.8684 43.5393 57.2971 43.5391C55.2794 43.5391 53.2618 43.5438 51.2441 43.5498C49.6976 43.5536 48.1511 43.5543 46.6046 43.5541C45.8605 43.5545 45.1164 43.5561 44.3723 43.5587C43.3335 43.5621 42.2947 43.5611 41.2558 43.5591C40.9458 43.561 40.6357 43.5629 40.3163 43.565C38.1884 43.554 38.1884 43.554 37.4193 42.7818C37.6858 40.588 38.1372 40.6631 40.2695 40.6519Z" fill="#525859"/>
<path d="M40.2695 17.0886C40.5803 17.0888 40.891 17.0889 41.2111 17.0891C41.5366 17.0879 41.8621 17.0868 42.1975 17.0856C43.2792 17.0822 44.361 17.0816 45.4427 17.0812C46.1912 17.0801 46.9397 17.0789 47.6882 17.0777C49.2594 17.0756 50.8306 17.075 52.4018 17.0752C54.4195 17.0752 56.4372 17.0705 58.4549 17.0645C60.0014 17.0607 61.5478 17.06 63.0943 17.0602C63.8384 17.0598 64.5825 17.0582 65.3266 17.0556C66.3655 17.0522 67.4043 17.0531 68.4431 17.0552C68.7532 17.0533 69.0632 17.0513 69.3826 17.0493C71.5106 17.0603 71.5106 17.0603 72.2797 17.8325C72.0879 19.411 72.0879 19.411 71.5894 19.9116C70.553 19.9483 69.5244 19.9624 68.4878 19.9619C67.9996 19.9637 67.9996 19.9637 67.5015 19.9654C66.4197 19.9687 65.338 19.9694 64.2562 19.9698C63.5078 19.9709 62.7593 19.9721 62.0108 19.9733C60.4396 19.9754 58.8684 19.976 57.2971 19.9758C55.2794 19.9757 53.2618 19.9805 51.2441 19.9864C49.6976 19.9903 48.1511 19.991 46.6046 19.9908C45.8605 19.9912 45.1164 19.9928 44.3723 19.9954C43.3335 19.9988 42.2947 19.9978 41.2558 19.9957C40.9458 19.9977 40.6357 19.9996 40.3163 20.0016C38.1884 19.9907 38.1884 19.9907 37.4193 19.2185C37.6858 17.0247 38.1372 17.0998 40.2695 17.0886Z" fill="#525859"/>
<path d="M39.9629 87.7785C40.2284 87.7787 40.494 87.7788 40.7676 87.779C41.0459 87.7778 41.3243 87.7767 41.6111 87.7755C42.536 87.7722 43.4608 87.7715 44.3857 87.7711C45.0258 87.77 45.666 87.7689 46.3061 87.7676C47.6498 87.7656 48.9936 87.7649 50.3373 87.7651C52.0625 87.7652 53.7877 87.7604 55.5129 87.7545C56.8355 87.7506 58.1581 87.7499 59.4808 87.7501C60.117 87.7497 60.7532 87.7481 61.3894 87.7455C62.2778 87.7421 63.1661 87.7431 64.0546 87.7452C64.3194 87.7432 64.5843 87.7413 64.8572 87.7393C66.6784 87.7502 66.6784 87.7502 67.4475 88.5224C67.2558 90.101 67.2558 90.101 66.7572 90.6015C65.8683 90.6381 64.9885 90.6524 64.0992 90.6518C63.8209 90.653 63.5425 90.6542 63.2557 90.6554C62.3309 90.6587 61.406 90.6593 60.4811 90.6597C59.841 90.6608 59.2008 90.662 58.5607 90.6632C57.217 90.6653 55.8732 90.6659 54.5295 90.6657C52.8043 90.6657 51.0792 90.6704 49.354 90.6764C48.0313 90.6802 46.7087 90.6809 45.3861 90.6807C44.7498 90.6811 44.1136 90.6827 43.4774 90.6854C42.589 90.6887 41.7007 90.6878 40.8122 90.6857C40.5474 90.6876 40.2825 90.6896 40.0096 90.6916C38.1884 90.6806 38.1884 90.6806 37.4193 89.9085C37.6658 87.8788 37.97 87.7908 39.9629 87.7785Z" fill="#525859"/>
<path d="M39.9629 64.2152C40.2284 64.2154 40.494 64.2155 40.7676 64.2157C41.0459 64.2145 41.3243 64.2134 41.6111 64.2122C42.536 64.2089 43.4608 64.2082 44.3857 64.2078C45.0258 64.2067 45.666 64.2055 46.3061 64.2043C47.6498 64.2023 48.9936 64.2016 50.3373 64.2018C52.0625 64.2019 53.7877 64.1971 55.5129 64.1912C56.8355 64.1873 58.1581 64.1866 59.4808 64.1868C60.117 64.1864 60.7532 64.1848 61.3894 64.1822C62.2778 64.1788 63.1661 64.1798 64.0546 64.1819C64.3194 64.1799 64.5843 64.178 64.8572 64.176C66.6784 64.1869 66.6784 64.1869 67.4475 64.9591C67.2558 66.5377 67.2558 66.5377 66.7572 67.0382C65.8683 67.0748 64.9885 67.089 64.0992 67.0885C63.8209 67.0897 63.5425 67.0908 63.2557 67.092C62.3309 67.0954 61.406 67.096 60.4811 67.0964C59.841 67.0975 59.2008 67.0987 58.5607 67.0999C57.217 67.102 55.8732 67.1026 54.5295 67.1024C52.8043 67.1024 51.0792 67.1071 49.354 67.1131C48.0313 67.1169 46.7087 67.1176 45.3861 67.1174C44.7498 67.1178 44.1136 67.1194 43.4774 67.122C42.589 67.1254 41.7007 67.1245 40.8122 67.1224C40.5474 67.1243 40.2825 67.1263 40.0096 67.1283C38.1884 67.1173 38.1884 67.1173 37.4193 66.3451C37.6658 64.3155 37.97 64.2275 39.9629 64.2152Z" fill="#525859"/>
<path d="M17.4867 61.3639C18.8177 61.5461 19.2992 62.2369 20.1616 63.2265C20.9321 62.8797 21.4741 62.6108 22.0384 61.9703C22.5777 61.4939 22.5777 61.4939 23.4837 61.4072C24.3035 61.4939 24.3035 61.4939 24.6486 61.8404C24.7781 62.6201 24.7781 62.6201 24.6486 63.573C23.7857 64.5476 23.7857 64.5476 22.9229 65.3056C23.2742 66.0924 23.5353 66.6251 24.1956 67.1898C24.3451 67.3685 24.4946 67.5471 24.6486 67.7312C24.5408 68.6625 24.5408 68.6625 24.3035 69.4638C23.5484 69.7454 23.5484 69.7454 22.5777 69.8103C21.607 68.9657 21.607 68.9657 20.8519 68.0777C20.0682 68.4305 19.5377 68.6926 18.9752 69.3555C18.7972 69.5056 18.6192 69.6557 18.4359 69.8103C17.5083 69.702 17.5083 69.702 16.7101 69.4638C16.4297 68.7058 16.4297 68.7058 16.365 67.7312C17.2063 66.7566 17.2063 66.7566 18.0907 65.9986C17.7454 65.2252 17.4775 64.681 16.8395 64.1144C16.365 63.573 16.365 63.573 16.2787 62.6634C16.3918 61.5842 16.427 61.5412 17.4867 61.3639Z" fill="#F8F8F8"/>
<path d="M84.0149 66.6917C85.5872 66.8842 85.5872 66.8842 86.0858 67.3847C86.1611 68.86 86.1499 70.3372 86.1497 71.8142C86.1505 72.5566 86.1568 73.2987 86.1633 74.041C86.1643 74.5109 86.165 74.9808 86.1653 75.4507C86.1667 75.8804 86.1682 76.3101 86.1696 76.7528C86.0858 77.7803 86.0858 77.7803 85.3955 78.4733C84.6944 78.563 84.6944 78.563 83.8423 78.5654C83.5362 78.5663 83.2301 78.5671 82.9147 78.5681C82.5943 78.5654 82.274 78.5627 81.944 78.5599C81.6236 78.5626 81.3033 78.5653 80.9732 78.5681C80.514 78.5667 80.514 78.5667 80.0456 78.5654C79.7644 78.5646 79.4832 78.5638 79.1935 78.563C78.4924 78.4733 78.4924 78.4733 77.8021 77.7803C77.9939 76.2017 77.9939 76.2017 78.4924 75.7012C79.3046 75.676 80.1175 75.6722 80.9301 75.6795C81.3754 75.6826 81.8208 75.6858 82.2797 75.689C82.6245 75.693 82.9693 75.697 83.3246 75.7012C83.3209 75.4529 83.3173 75.2046 83.3136 74.9487C83.2993 73.8279 83.2903 72.7071 83.2814 71.5862C83.2756 71.1954 83.2698 70.8045 83.2639 70.4019C83.2617 70.0289 83.2594 69.6559 83.2571 69.2716C83.2535 68.9268 83.2499 68.582 83.2462 68.2268C83.3246 67.3847 83.3246 67.3847 84.0149 66.6917Z" fill="#D6316C"/>
<path d="M24.2185 38.5383C24.6023 38.5805 24.6023 38.5805 24.9938 38.6236C25.2783 39.3573 25.2783 39.3573 25.3389 40.3562C24.7645 41.1563 24.2333 41.7885 23.5484 42.4786C23.2918 42.7513 23.2918 42.7513 23.03 43.0295C20.6325 45.5416 20.6325 45.5416 19.3419 45.5757C18.0572 45.0536 17.1391 44.2886 16.365 43.1284C16.4081 42.1321 16.4081 42.1321 16.7101 41.3958C17.3357 41.1792 17.3357 41.1792 18.0907 41.0492C18.4324 41.2779 18.7741 41.5066 19.1262 41.7423C20.7601 41.64 21.5284 40.3712 22.544 39.2178C23.268 38.6236 23.268 38.6236 24.2185 38.5383Z" fill="#F8F9F9"/>
<path d="M24.2172 85.6636C24.4735 85.6922 24.7297 85.7208 24.9938 85.7502C25.254 86.5082 25.254 86.5082 25.3389 87.4828C24.4749 88.7892 23.3421 89.8484 22.2326 90.948C21.9316 91.2556 21.9316 91.2556 21.6245 91.5693C20.8632 92.2854 20.352 92.6663 19.2988 92.7456C18.0673 92.1583 17.128 91.3987 16.365 90.255C16.4081 89.2587 16.4081 89.2587 16.7101 88.5224C17.3357 88.3058 17.3357 88.3058 18.0907 88.1759C18.4324 88.4046 18.7741 88.6333 19.1262 88.8689C19.1262 89.0976 19.1262 89.3263 19.1262 89.5619C19.5582 89.1872 19.9895 88.8116 20.4205 88.4357C20.6737 88.2155 20.9268 87.9953 21.1877 87.7684C21.9227 87.127 21.9227 87.127 22.6424 86.2917C23.268 85.7502 23.268 85.7502 24.2172 85.6636Z" fill="#F9F9F9"/>
<path d="M24.2185 14.975C24.6023 15.0172 24.6023 15.0172 24.9938 15.0603C25.2783 15.7939 25.2783 15.7939 25.3389 16.7929C24.7645 17.593 24.2333 18.2252 23.5484 18.9153C23.2918 19.188 23.2918 19.188 23.03 19.4662C20.6325 21.9782 20.6325 21.9782 19.3419 22.0123C18.0572 21.4903 17.1391 20.7253 16.365 19.5651C16.4081 18.5688 16.4081 18.5688 16.7101 17.8325C17.3357 17.6159 17.3357 17.6159 18.0907 17.4859C18.4324 17.7146 18.7741 17.9433 19.1262 18.179C20.7601 18.0767 21.5284 16.8079 22.544 15.6545C23.268 15.0603 23.268 15.0603 24.2185 14.975Z" fill="#F9F9F9"/>
</svg>
