<svg xmlns="http://www.w3.org/2000/svg" enable-background="new 0 0 2500 2500" viewBox="0 0 2500 2500"><path fill="#ffbf66" d="M1046.18,411.88l-15.97,10.05c-7.5,4.67-17.35,2.43-22.04-5.01l-10.06-15.97c-4.69-7.45-2.45-17.3,5-21.99
			l15.99-10.11c7.45-4.69,17.3-2.45,22.04,5.01l10.04,16.03C1055.87,397.34,1053.63,407.19,1046.18,411.88z" class="colorffcc3d svgShape"/><path fill="#ff401c" d="M1981.33,2123.81H253.5c-1.93,0-3.5-1.57-3.5-3.5s1.57-3.5,3.5-3.5h1727.83c1.93,0,3.5,1.57,3.5,3.5
				S1983.27,2123.81,1981.33,2123.81z" class="color030047 svgShape"/><path fill="#ff401c" d="M1523.31,481.58c-1.93,0-3.5-1.57-3.5-3.5s1.57-3.5,3.5-3.5c22.28,0,41.84-33.39,43.59-74.43
								c1.16-27.16-5.92-52.17-18.49-65.28c-5.63-5.88-11.84-8.86-18.47-8.86c-1.93,0-3.5-1.57-3.5-3.5s1.57-3.5,3.5-3.5
								c8.49,0,16.62,3.81,23.53,11.01c13.84,14.44,21.66,41.43,20.43,70.43C1571.95,445.94,1549.73,481.58,1523.31,481.58z" class="color030047 svgShape"/><path fill="#ff401c" d="M1716.3,481.58c-1.93,0-3.5-1.57-3.5-3.5s1.57-3.5,3.5-3.5c22.28,0,41.84-33.39,43.59-74.43
								c1.16-27.16-5.92-52.17-18.49-65.28c-5.63-5.88-11.84-8.86-18.47-8.86c-1.93,0-3.5-1.57-3.5-3.5s1.57-3.5,3.5-3.5
								c8.49,0,16.62,3.81,23.53,11.01c13.84,14.44,21.66,41.43,20.43,70.43C1764.95,445.94,1742.73,481.58,1716.3,481.58z" class="color030047 svgShape"/><path fill="#ff401c" d="M1909.29,481.58c-1.93,0-3.5-1.57-3.5-3.5s1.57-3.5,3.5-3.5c22.29,0,41.84-33.39,43.59-74.43
								c1.16-27.16-5.92-52.17-18.49-65.28c-5.63-5.88-11.84-8.86-18.47-8.86c-1.93,0-3.5-1.57-3.5-3.5s1.57-3.5,3.5-3.5
								c8.49,0,16.62,3.81,23.53,11.01c13.84,14.44,21.66,41.43,20.43,70.43C1957.94,445.94,1935.72,481.58,1909.29,481.58z" class="color030047 svgShape"/><path fill="#ff401c" d="M1330.31,481.58c-1.93,0-3.5-1.57-3.5-3.5s1.57-3.5,3.5-3.5c22.29,0,41.84-33.39,43.59-74.43
								c1.16-27.16-5.93-52.18-18.49-65.28c-5.63-5.88-11.84-8.85-18.47-8.85c-1.93,0-3.5-1.57-3.5-3.5s1.57-3.5,3.5-3.5
								c8.48,0,16.62,3.81,23.52,11.01c13.84,14.44,21.67,41.43,20.43,70.43C1378.96,445.94,1356.74,481.58,1330.31,481.58z" class="color030047 svgShape"/><path fill="#fff" d="M1156.31,1404.97h885.51c47.54,0,87.72-38.54,89.75-86.08l32.99-773.53H1106.9l-32.99,773.53
								C1071.88,1366.44,1108.77,1404.97,1156.31,1404.97z" class="colorffffff svgShape"/><path fill="#ff401c" d="M2041.82,1408.48h-885.51c-23.94,0-46.06-9.33-62.29-26.26c-16.25-16.96-24.64-39.5-23.61-63.47
								l32.99-773.53c0.08-1.88,1.62-3.35,3.5-3.35h1057.66c0.96,0,1.87,0.39,2.53,1.08c0.66,0.69,1.01,1.62,0.97,2.57
								l-32.99,773.53C2132.96,1368.36,2091.13,1408.48,2041.82,1408.48z M1110.25,548.87l-32.85,770.17
								c-0.94,22.04,6.76,42.76,21.67,58.32c14.89,15.54,35.22,24.1,57.23,24.1h885.51c45.61,0,84.3-37.11,86.25-82.72l32.84-769.88
								H1110.25z" class="color030047 svgShape"/><path fill="#25e291" stroke="#472900" stroke-linecap="round" stroke-linejoin="round" stroke-miterlimit="10" stroke-width="1.5" d="M1109.32,488.57l-2.42,56.82h1057.64l2.42-56.82c2.2-51.47-40-93.17-94.27-93.17H1211.6
								C1157.33,395.39,1111.52,437.09,1109.32,488.57z M1877.8,478.08c0.74-17.38,15.43-31.52,32.81-31.52
								c17.43,0,30.92,14.14,30.18,31.52c-0.74,17.43-15.43,31.52-32.87,31.52C1890.55,509.6,1877.06,495.51,1877.8,478.08z
								 M1684.77,478.08c0.74-17.38,15.49-31.52,32.87-31.52c17.43,0,30.92,14.14,30.18,31.52c-0.74,17.43-15.43,31.52-32.87,31.52
								C1697.56,509.6,1684.02,495.51,1684.77,478.08z M1491.78,478.08c0.74-17.38,15.49-31.52,32.87-31.52
								c17.38,0,30.92,14.14,30.18,31.52c-0.74,17.43-15.49,31.52-32.87,31.52C1504.58,509.6,1491.04,495.51,1491.78,478.08z
								 M1298.8,478.08c0.74-17.38,15.43-31.52,32.87-31.52c17.38,0,30.92,14.14,30.18,31.52c-0.74,17.43-15.49,31.52-32.87,31.52
								C1311.55,509.6,1298.06,495.51,1298.8,478.08z" class="color605efd svgShape colorStroke030047 svgStroke"/><path fill="#ff401c" d="M1330.31,481.58c-8.49,0-16.62-3.81-23.52-11.01c-13.84-14.44-21.67-41.42-20.43-70.42
								c1.94-45.5,24.17-81.14,50.59-81.14c1.93,0,3.5,1.57,3.5,3.5s-1.57,3.5-3.5,3.5c-22.29,0-41.84,33.39-43.59,74.43
								c-1.16,27.16,5.93,52.17,18.49,65.28c5.63,5.87,11.84,8.85,18.47,8.85c1.93,0,3.5,1.57,3.5,3.5
								S1332.25,481.58,1330.31,481.58z" class="color030047 svgShape"/><path fill="#ff401c" d="M1523.31,481.58c-8.49,0-16.62-3.81-23.53-11.01c-13.84-14.44-21.67-41.42-20.43-70.42
								c1.94-45.5,24.17-81.14,50.59-81.14c1.93,0,3.5,1.57,3.5,3.5s-1.57,3.5-3.5,3.5c-22.29,0-41.84,33.39-43.59,74.43
								c-1.16,27.16,5.93,52.17,18.49,65.28c5.63,5.88,11.85,8.86,18.47,8.86c1.93,0,3.5,1.57,3.5,3.5
								S1525.24,481.58,1523.31,481.58z" class="color030047 svgShape"/><path fill="#ff401c" d="M1716.3,481.58c-8.49,0-16.62-3.81-23.53-11.02c-13.84-14.44-21.66-41.42-20.43-70.42
								c1.94-45.5,24.16-81.14,50.59-81.14c1.93,0,3.5,1.57,3.5,3.5s-1.57,3.5-3.5,3.5c-22.29,0-41.84,33.39-43.59,74.43
								c-1.16,27.16,5.92,52.17,18.49,65.28c5.63,5.88,11.85,8.86,18.47,8.86c1.93,0,3.5,1.57,3.5,3.5S1718.23,481.58,1716.3,481.58
								z" class="color030047 svgShape"/><path fill="#ff401c" d="M1909.29,481.58c-8.49,0-16.62-3.81-23.53-11.01c-13.84-14.44-21.66-41.43-20.43-70.42
								c1.94-45.5,24.16-81.14,50.59-81.14c1.93,0,3.5,1.57,3.5,3.5s-1.57,3.5-3.5,3.5c-22.29,0-41.84,33.39-43.59,74.43
								c-1.16,27.16,5.92,52.17,18.49,65.28c5.63,5.88,11.85,8.86,18.47,8.86c1.93,0,3.5,1.57,3.5,3.5
								S1911.22,481.58,1909.29,481.58z" class="color030047 svgShape"/><line x1="1923.09" x2="1900.74" y1="696.89" y2="1234.62" fill="#fff"/><path fill="#ff401c" d="M1900.74,1238.12c-0.05,0-0.1,0-0.15,0c-1.93-0.08-3.43-1.71-3.35-3.65l22.35-537.73
								c0.08-1.93,1.61-3.48,3.65-3.35c1.93,0.08,3.43,1.71,3.35,3.65l-22.35,537.73
								C1904.16,1236.65,1902.61,1238.12,1900.74,1238.12z" class="color030047 svgShape"/><line x1="1726.13" x2="1703.78" y1="696.89" y2="1234.62" fill="#fff"/><path fill="#ff401c" d="M1703.78,1238.12c-0.05,0-0.1,0-0.15,0c-1.93-0.08-3.43-1.71-3.35-3.65l22.35-537.73
								c0.08-1.93,1.65-3.48,3.65-3.35c1.93,0.08,3.43,1.71,3.35,3.65l-22.35,537.73
								C1707.2,1236.65,1705.65,1238.12,1703.78,1238.12z" class="color030047 svgShape"/><line x1="1529.17" x2="1506.82" y1="696.89" y2="1234.62" fill="#fff"/><path fill="#ff401c" d="M1506.82,1238.12c-0.05,0-0.1,0-0.15,0c-1.93-0.08-3.43-1.71-3.35-3.65l22.35-537.73
								c0.08-1.93,1.6-3.48,3.65-3.35c1.93,0.08,3.43,1.71,3.35,3.65l-22.35,537.73
								C1510.24,1236.65,1508.69,1238.12,1506.82,1238.12z" class="color030047 svgShape"/><line x1="1332.21" x2="1309.86" y1="696.89" y2="1234.62" fill="#fff"/><path fill="#ff401c" d="M1309.86,1238.12c-0.05,0-0.1,0-0.15,0c-1.93-0.08-3.43-1.71-3.35-3.65l22.35-537.73
								c0.08-1.93,1.65-3.48,3.65-3.35c1.93,0.08,3.43,1.71,3.35,3.65l-22.35,537.73
								C1313.28,1236.65,1311.73,1238.12,1309.86,1238.12z" class="color030047 svgShape"/><line x1="1192.52" x2="2055.68" y1="786.93" y2="786.93" fill="#fff"/><path fill="#ff401c" d="M2055.68,790.43h-863.15c-1.93,0-3.5-1.57-3.5-3.5s1.57-3.5,3.5-3.5h863.15c1.93,0,3.5,1.57,3.5,3.5
							S2057.61,790.43,2055.68,790.43z" class="color030047 svgShape"/><line x1="1184.9" x2="2048.05" y1="965.75" y2="965.75" fill="#fff"/><path fill="#ff401c" d="M2048.05,969.26H1184.9c-1.93,0-3.5-1.57-3.5-3.5s1.57-3.5,3.5-3.5h863.15c1.93,0,3.5,1.57,3.5,3.5
							S2049.98,969.26,2048.05,969.26z" class="color030047 svgShape"/><line x1="1177.27" x2="2040.42" y1="1144.58" y2="1144.58" fill="#fff"/><path fill="#ff401c" d="M2040.42,1148.08h-863.15c-1.93,0-3.5-1.57-3.5-3.5s1.57-3.5,3.5-3.5h863.15c1.93,0,3.5,1.57,3.5,3.5
							S2042.35,1148.08,2040.42,1148.08z" class="color030047 svgShape"/><circle cx="1625.58" cy="696.89" r="67.64" fill="#25e291" class="color605efd svgShape"/><polygon fill="#fff" points="1608.67 726.95 1590.2 700.17 1605.58 689.56 1613.44 700.97 1650.93 675.1 1661.54 690.48" class="colorffffff svgShape"/><circle cx="1815.5" cy="1054.37" r="67.64" fill="#25e291" class="color605efd svgShape"/><polygon fill="#fff" points="1798.59 1084.43 1780.11 1057.65 1795.49 1047.04 1803.36 1058.45 1840.85 1032.58 1851.45 1047.96" class="colorffffff svgShape"/><g fill="#c07611" class="color000000 svgShape"><circle cx="1232.39" cy="1054.37" r="67.64" fill="#25e291" class="color605efd svgShape"/><polygon fill="#fff" points="1215.48 1084.43 1197.01 1057.65 1212.38 1047.04 1220.25 1058.44 1257.74 1032.58 1268.34 1047.95" class="colorffffff svgShape"/></g><g fill="#c07611" class="color000000 svgShape"><line x1="2030.63" x2="1962.62" y1="679.95" y2="747.96" fill="#605efd"/><rect width="96.18" height="18.68" x="1948.53" y="704.62" fill="#ff401c" class="color030047 svgShape" transform="rotate(-45.001 1996.622 713.98)"/><line x1="1962.62" x2="2030.63" y1="679.95" y2="747.96" fill="#605efd"/><rect width="18.68" height="96.18" x="1987.28" y="665.86" fill="#ff401c" class="color030047 svgShape" transform="rotate(-45.001 1996.622 713.98)"/></g><g fill="#c07611" class="color000000 svgShape"><line x1="1642.85" x2="1574.84" y1="1020.37" y2="1088.38" fill="#605efd"/><rect width="96.19" height="18.68" x="1560.75" y="1045.03" fill="#ff401c" class="color030047 svgShape" transform="rotate(-45.001 1608.84 1054.394)"/><line x1="1574.84" x2="1642.85" y1="1020.37" y2="1088.38" fill="#605efd"/><rect width="18.68" height="96.19" x="1599.51" y="1006.28" fill="#ff401c" class="color030047 svgShape" transform="rotate(-45.001 1608.84 1054.394)"/></g><g fill="#c07611" class="color000000 svgShape"><line x1="1455.17" x2="1387.16" y1="842.21" y2="910.22" fill="#605efd"/><rect width="96.18" height="18.68" x="1373.07" y="866.88" fill="#ff401c" class="color030047 svgShape" transform="rotate(-45.001 1421.163 876.238)"/><line x1="1387.16" x2="1455.17" y1="842.21" y2="910.22" fill="#605efd"/><rect width="18.68" height="96.18" x="1411.83" y="828.13" fill="#ff401c" class="color030047 svgShape" transform="rotate(-45.001 1421.127 876.233)"/></g><g fill="#c07611" class="color000000 svgShape"><path fill="#fff" d="M1267.15,1481.56l126.9-140.89c8.22-13.54,19.14-25.25,32.06-34.41l45.84-32.48
								c10.47-5.83,23.58-3.53,31.44,5.51v0c9.15,10.52,8.08,26.46-2.4,35.66l-49.51,43.48l173.95,22.79
								c12.08,1.58,21.09,13.25,17.91,25.02c-1.95,7.21-8.01,13.77-22.82,15.59c0,0,12.19,30.69-23.97,37.48
								c0,0,5.67,36.95-24.24,34.63c-32.94-2.56-70.26-9.84-70.26-9.84l-79.54,122.39L1267.15,1481.56z" class="colorffffff svgShape"/><path fill="#ff401c" d="M1422.52,1609.99c-0.79,0-1.57-0.27-2.2-0.77l-155.37-124.93c-0.75-0.6-1.22-1.49-1.3-2.45
								s0.24-1.91,0.89-2.62l126.68-140.65c8.5-13.91,19.55-25.74,32.86-35.17l45.84-32.49c12.16-6.8,27.21-4.16,36.11,6.07
								c10.38,11.94,9.15,30.14-2.73,40.58l-43.71,38.38l166.29,21.79c7.2,0.94,13.64,4.95,17.67,10.99
								c3.73,5.6,4.86,12.14,3.16,18.41c-1.76,6.51-6.99,14.55-21.72,17.5c1.19,5.1,2.19,14.11-2.36,22.38
								c-4.07,7.39-11.56,12.44-22.28,15.04c0.43,6.25,0.31,19.89-7.56,28.37c-4.93,5.32-11.93,7.66-20.74,6.98
								c-28.07-2.18-59.63-7.83-68.33-9.45l-78.26,120.42c-0.54,0.83-1.4,1.39-2.38,1.55
								C1422.88,1609.98,1422.7,1609.99,1422.52,1609.99z M1272.23,1481.15l149.46,120.18l77.43-119.14c0.78-1.2,2.2-1.8,3.61-1.53
								c0.37,0.07,37.51,7.27,69.86,9.79c6.68,0.51,11.6-1.04,15.05-4.75c7.95-8.55,5.47-25.69,5.45-25.86
								c-0.28-1.87,0.96-3.62,2.82-3.97c10.26-1.92,17.19-6.03,20.59-12.21c5.13-9.3,0.81-20.42,0.77-20.54
								c-0.4-1.01-0.31-2.15,0.24-3.08c0.55-0.93,1.51-1.56,2.58-1.69c11.22-1.38,17.9-5.76,19.86-13.03
								c1.16-4.3,0.37-8.81-2.22-12.7c-2.87-4.29-7.63-7.26-12.76-7.93l-173.96-22.79c-1.36-0.18-2.49-1.14-2.9-2.45
								c-0.4-1.32,0.01-2.74,1.04-3.65l49.51-43.49c9-7.91,9.93-21.69,2.07-30.73c-6.74-7.74-18.13-9.75-27.1-4.75l-45.52,32.28
								c-12.61,8.93-23.07,20.16-31.09,33.37c-0.11,0.19-0.24,0.36-0.39,0.53L1272.23,1481.15z" class="color030047 svgShape"/><line x1="1620.52" x2="1548.33" y1="1421.83" y2="1404.97" fill="#fff"/><path fill="#ff401c" d="M1620.52,1425.33c-0.26,0-0.53-0.03-0.8-0.09l-72.19-16.86c-1.88-0.44-3.06-2.32-2.62-4.21
								c0.44-1.88,2.32-3.04,4.21-2.62l72.19,16.86c1.88,0.44,3.06,2.32,2.62,4.21C1623.55,1424.24,1622.11,1425.33,1620.52,1425.33
								z" class="color030047 svgShape"/><line x1="1596.55" x2="1533.15" y1="1459.31" y2="1437.4" fill="#fff"/><path fill="#ff401c" d="M1596.55,1462.81c-0.38,0-0.77-0.06-1.14-0.19l-63.4-21.91c-1.83-0.63-2.8-2.63-2.17-4.46
								c0.63-1.83,2.62-2.8,4.46-2.17l63.4,21.91c1.83,0.63,2.8,2.63,2.17,4.46C1599.36,1461.9,1598,1462.81,1596.55,1462.81z" class="color030047 svgShape"/><rect width="85.73" height="364.6" x="1425.06" y="1199.22" fill="#25e291" class="color605efd svgShape" transform="rotate(-89.685 1467.927 1381.493)"/><path fill="#ff401c" d="M1649.98,1428.88c-0.01,0-0.01,0-0.02,0l-364.59-2c-0.93,0-1.82-0.38-2.47-1.04
									c-0.65-0.66-1.02-1.55-1.01-2.48l0.47-85.73c0.01-1.93,1.58-3.48,3.5-3.48c0.01,0,0.01,0,0.02,0l364.59,2
									c0.93,0,1.82,0.38,2.47,1.04c0.65,0.66,1.02,1.55,1.01,2.48l-0.47,85.73C1653.47,1427.33,1651.91,1428.88,1649.98,1428.88z
									 M1288.91,1419.89l357.59,1.97l0.44-78.72l-357.59-1.97L1288.91,1419.89z" class="color030047 svgShape"/><path fill="#ffbf66" d="M1242.74,1337.41l43.15,0.24l-0.47,85.73l-43.15-0.24c-15.39-0.08-27.75-11.03-27.67-24.46l0.2-37.11
									C1214.87,1348.13,1227.35,1337.32,1242.74,1337.41z" class="colorffcc3d svgShape"/><path fill="#ff401c" d="M1285.42,1426.88c-0.01,0-0.01,0-0.02,0l-43.15-0.24c-17.26-0.1-31.24-12.65-31.16-27.98l0.2-37.11
									c0.09-15.28,14.09-27.64,31.27-27.64c0.07,0,0.13,0,0.2,0l43.15,0.24c1.94,0.01,3.5,1.59,3.48,3.52l-0.47,85.73
									c0,0.93-0.38,1.82-1.04,2.47C1287.23,1426.51,1286.34,1426.88,1285.42,1426.88z M1242.56,1340.91
									c-13.33,0-24.2,9.25-24.26,20.67l-0.2,37.11c-0.06,11.47,10.79,20.87,24.19,20.94l39.65,0.22l0.43-78.73l-39.65-0.22
									C1242.67,1340.91,1242.61,1340.91,1242.56,1340.91z" class="color030047 svgShape"/><polygon fill="#fff" points="1650.46 1339.65 1698.11 1368.88 1720.97 1382.92 1697.96 1396.68 1649.99 1425.38" class="colorffffff svgShape"/><path fill="#ff401c" d="M1649.99,1428.88c-0.6,0-1.2-0.15-1.74-0.46c-1.1-0.63-1.77-1.8-1.77-3.06l0.47-85.73
									c0.01-1.27,0.7-2.43,1.8-3.04c1.11-0.62,2.46-0.59,3.53,0.08l70.51,43.28c1.04,0.64,1.68,1.78,1.67,3.01
									c-0.01,1.22-0.65,2.36-1.71,2.98l-70.98,42.45C1651.23,1428.71,1650.61,1428.88,1649.99,1428.88z M1653.93,1345.89
									l-0.4,73.3l60.69-36.3L1653.93,1345.89z" class="color030047 svgShape"/><polygon fill="#ff401c" points="1698.11 1368.88 1720.97 1382.92 1697.96 1396.68" class="color030047 svgShape"/><path fill="#ff401c" d="M1697.96,1400.18c-0.6,0-1.2-0.15-1.74-0.46c-1.1-0.63-1.77-1.8-1.76-3.06l0.15-27.8
									c0.01-1.27,0.7-2.43,1.8-3.04c1.1-0.62,2.46-0.59,3.53,0.08l22.86,14.05c1.04,0.64,1.68,1.78,1.67,3.01
									c-0.01,1.22-0.65,2.36-1.71,2.98l-23.01,13.75C1699.21,1400.01,1698.58,1400.18,1697.96,1400.18z M1701.58,1375.12
									l-0.08,15.36l12.72-7.6L1701.58,1375.12z" class="color030047 svgShape"/><g class="color000000 svgShape"><line x1="1650.22" x2="1285.63" y1="1382.51" y2="1380.51" fill="#ffcc3d"/><path fill="#ff401c" d="M1650.22,1386.02c-0.01,0-0.01,0-0.02,0l-364.59-2c-1.94-0.01-3.5-1.59-3.48-3.52
									c0.01-1.93,1.58-3.48,3.5-3.48c0.01,0,0.01,0,0.02,0l364.59,2c1.94,0.01,3.5,1.59,3.48,3.52
									C1653.71,1384.46,1652.14,1386.02,1650.22,1386.02z" class="color030047 svgShape"/></g><g class="color000000 svgShape"><path fill="#fff" d="M1267.15,1481.56l34.82-40.65l17.22-74.8c4.74-14.38,19.8-22.65,34.48-18.92l0,0
								c16.18,4.11,25.49,21.07,20.28,36.93l-11.91,36.26c0,0,41.85,32.11,16.7,80.27" class="colorffffff svgShape"/><path fill="#ff401c" d="M1378.74,1504.14c-0.55,0-1.1-0.13-1.62-0.4c-1.71-0.9-2.38-3.01-1.48-4.73
								c23.45-44.9-14.12-74.63-15.74-75.87c-1.17-0.91-1.65-2.46-1.19-3.87l11.91-36.25c2.21-6.74,1.55-13.87-1.86-20.09
								c-3.42-6.22-9.08-10.61-15.96-12.35c-12.84-3.28-26.14,4.04-30.29,16.62l-17.13,74.5c-0.13,0.55-0.39,1.06-0.75,1.49
								l-34.82,40.65c-1.26,1.47-3.47,1.64-4.94,0.38c-1.47-1.26-1.64-3.47-0.38-4.94l34.26-40l17.03-73.97
								c5.38-16.37,22.37-25.69,38.75-21.53c8.78,2.23,16.01,7.83,20.37,15.77c4.36,7.94,5.2,17.05,2.37,25.65l-11.18,34.03
								c8.2,7.39,38.71,39.05,15.75,83.02C1381.22,1503.46,1380,1504.14,1378.74,1504.14z" class="color030047 svgShape"/></g><g class="color000000 svgShape"><path fill="#ffbf66" d="M862.84,1408.96l40.34-4.21c46.36-4.84,92.08,13.8,121.84,49.69l116.29,183.81l109.09-181.59
							l190.88,154.23l-170.76,256.07c-30.82,44-81.82,69.42-135.51,67.56h0c-53.3-1.85-102.1-30.35-129.91-75.85l-181.36-296.73" class="colorffcc3d svgShape"/></g><g class="color000000 svgShape"><path fill="#ff401c" d="M1270.52,1870.45c-0.67,0-1.34-0.19-1.94-0.59c-1.61-1.07-2.05-3.25-0.97-4.86l168.99-253.41
							l-185.3-149.72l-144.74,235.17c-1.01,1.65-3.17,2.16-4.82,1.15c-1.65-1.01-2.16-3.17-1.15-4.82l146.83-238.56
							c0.53-0.86,1.4-1.45,2.39-1.62c0.99-0.17,2.01,0.1,2.79,0.73l190.88,154.23c1.41,1.14,1.72,3.16,0.71,4.67l-170.76,256.07
							C1272.76,1869.91,1271.65,1870.45,1270.52,1870.45z" class="color030047 svgShape"/></g><g class="color000000 svgShape"><path fill="#ffbf66" d="M904.8,1404.13c0,0-159.9,17.89-218.07,28.07c-42.36,7.41-144.01,31.72-199.76,49.92
											c-24.37,7.95-40.46,31.15-39.35,56.76l22.12,577.29h554.72L904.8,1404.13z" class="colorffcc3d svgShape"/><path fill="#ff401c" d="M1024.46,2119.67c-1.68,0-3.16-1.21-3.45-2.92l-96.93-576.8c-0.32-1.91,0.97-3.71,2.87-4.04
											c1.91-0.31,3.71,0.96,4.04,2.87l96.93,576.8c0.32,1.91-0.97,3.71-2.87,4.04
											C1024.84,2119.66,1024.65,2119.67,1024.46,2119.67z" class="color030047 svgShape"/><polygon fill="#fff" points="770.05 1531.55 761.41 1569.59 808.09 1865.71 743.31 1943.65 670.92 1873.78 707.8 1575.79 677.83 1546.39 721.06 1496.83" class="colorffffff svgShape"/><polygon fill="#ff401c" points="549.18 1464.05 680.26 1582.8 721.28 1501.29 615.24 1447.48" class="color030047 svgShape"/><polygon fill="#ff401c" points="721.28 1501.29 790.91 1552.03 823.74 1413.6 753.51 1422.43" class="color030047 svgShape"/><path fill="#fff" d="M612.7,1456.47l-32.98-171.6l150.56-28.94l32.89,171.14c-0.09,0.18-0.19,0.35-0.29,0.53
										C752.68,1515.25,701.72,1523.12,612.7,1456.47z" class="colorffffff svgShape"/><path fill="#ff401c" d="M707.74,1504.28c-24.86,0-56.91-14.89-97.15-45.01c-0.7-0.52-1.17-1.29-1.34-2.14l-32.98-171.6
										c-0.18-0.91,0.02-1.86,0.54-2.63c0.52-0.77,1.33-1.3,2.24-1.47l150.56-28.94c0.91-0.18,1.86,0.02,2.63,0.54
										c0.77,0.52,1.3,1.33,1.47,2.24l32.89,171.14c0.15,0.77,0.03,1.57-0.32,2.26c-4.61,38.63-17.43,62.72-38.11,71.62
										C721.99,1502.94,715.18,1504.28,707.74,1504.28z M615.88,1454.47c48.86,36.38,85.71,49.61,109.52,39.38
										c18.33-7.88,29.77-30.31,34-66.66c0.02-0.19,0.06-0.38,0.11-0.56l-32.02-166.6l-143.68,27.62L615.88,1454.47z" class="color030047 svgShape"/><g class="color000000 svgShape"><path fill="#fff" d="M588.6,1330.11c-66.96-65.23-106.6-185.69-106.6-185.69l185.22-143.25
										c5.09,2.16,98.04,24.05,158.38,155.1c52.52,114.08,0.89,222.31-157.22,216.02" class="colorffffff svgShape"/><path fill="#ff401c" d="M681.02,1376.05c-4.2,0-8.46-0.09-12.78-0.26c-1.93-0.08-3.44-1.71-3.36-3.64
										c0.08-1.93,1.77-3.41,3.64-3.36c71.32,2.82,125.83-18.35,153.46-59.65c26.41-39.48,26.57-94.67,0.44-151.41
										c-50.33-109.32-124.6-143.09-154.19-152.53c-0.12-0.04-0.24-0.08-0.35-0.11l-181.75,140.57
										c5.93,17.04,44.45,123.03,104.92,181.94c1.38,1.35,1.41,3.57,0.06,4.95c-1.35,1.38-3.57,1.41-4.95,0.06
										c-66.8-65.08-107.08-185.89-107.48-187.1c-0.46-1.41,0.01-2.96,1.18-3.86L665.08,998.4c1.01-0.78,2.35-0.95,3.51-0.45
										c0.29,0.12,0.9,0.3,1.77,0.58c30.48,9.72,106.92,44.42,158.42,156.28c27.17,59.01,26.81,116.68-0.99,158.23
										C800.46,1353.9,748.63,1376.05,681.02,1376.05z" class="color030047 svgShape"/><path fill="#ff401c" d="M473.61,1007.2c-28.25,23.51,17.51,73.68,17.51,73.68s-50.75,1.22-64.78,62.11
									c-14.03,60.84,89.97,121.69,89.97,121.69c15.02-14.37,29.44-30.67,45.71-43.47c7.22,9.86,16.38,16.35,21.13,28.48
									c6.65-10.37,9.73-23.07,8.52-35.34c-1.17-12.28-6.63-24.13-15.23-33.01c0,0,263.89-132.6,215.1-229.38
									c-48.79-96.78-207.15-70.27-202.24-17.88C604.37,1095.05,537.26,954.23,473.61,1007.2z" class="color030047 svgShape"/><ellipse cx="770.19" cy="1153.46" fill="#ff401c" class="color030047 svgShape" rx="10.54" ry="15.72" transform="rotate(-36.12 770.22 1153.466)"/><path fill="#fff" d="M761.93,1121.95c-11.05,1.79-20.06,10.79-22.86,22.83" class="colorffffff svgShape"/><path fill="#ff401c" d="M739.08,1148.27c-0.26,0-0.53-0.03-0.8-0.09c-1.88-0.44-3.06-2.32-2.62-4.2
										c3.13-13.46,13.22-23.46,25.71-25.49c1.91-0.32,3.71,0.99,4.02,2.9c0.31,1.91-0.99,3.71-2.9,4.02
										c-9.67,1.57-17.52,9.48-20.01,20.16C742.11,1147.18,740.67,1148.27,739.08,1148.27z" class="color030047 svgShape"/><ellipse cx="696.13" cy="1207.4" fill="#ff401c" class="color030047 svgShape" rx="10.54" ry="15.72" transform="rotate(-36.12 696.163 1207.412)"/><path fill="#fff" d="M687.87,1175.89c-11.05,1.79-20.06,10.79-22.86,22.83" class="colorffffff svgShape"/><path fill="#ff401c" d="M665.02,1202.22c-0.26,0-0.53-0.03-0.8-0.09c-1.88-0.44-3.06-2.32-2.62-4.2
										c3.13-13.46,13.22-23.46,25.71-25.49c1.91-0.32,3.71,0.99,4.02,2.9c0.31,1.91-0.99,3.71-2.9,4.02
										c-9.67,1.57-17.52,9.48-20.01,20.16C668.05,1201.13,666.61,1202.22,665.02,1202.22z" class="color030047 svgShape"/><path fill="#fff" d="M564.6,1221.61c0,0-62.91-26.84-84.48-7.85c-21.57,18.99,23.51,103.78,56.7,100.09
										s52.47-25.16,52.47-25.16" class="colorffffff svgShape"/><path fill="#ff401c" d="M534.69,1317.47c-20.49,0-43.05-26.83-55.27-54.46c-10.62-24.02-11.22-43.41-1.61-51.87
										c22.96-20.21,85.51,6.13,88.17,7.26c1.78,0.76,2.61,2.82,1.85,4.59c-0.76,1.78-2.82,2.61-4.59,1.85
										c-16.94-7.22-64.47-22.81-80.79-8.44c-6.98,6.15-5.65,23.33,3.39,43.78c11.56,26.15,33.68,52.12,50.61,50.2
										c31.37-3.48,50.06-23.82,50.25-24.02c1.3-1.43,3.51-1.55,4.94-0.26c1.44,1.3,1.56,3.5,0.26,4.94
										c-0.82,0.92-20.56,22.51-54.68,26.3C536.37,1317.42,535.53,1317.47,534.69,1317.47z" class="color030047 svgShape"/><path fill="#ff401c" d="M523.69,1274.1c-0.87,0-1.73-0.32-2.41-0.96c-5.01-4.75-9.09-10.61-11.81-16.96
									c-2.29-5.36-2.49-9.7-0.61-13.25c1.57-2.98,4.71-5.2,8.39-5.93c2.7-0.54,5.66-0.34,9.04,0.62
									c4.29,1.21,8.38,3.34,11.82,6.17c1.49,1.23,1.71,3.44,0.48,4.93c-1.22,1.49-3.43,1.71-4.93,0.48
									c-2.7-2.22-5.9-3.89-9.26-4.83c-2.29-0.65-4.18-0.8-5.79-0.49c-1.6,0.32-2.96,1.21-3.55,2.33
									c-0.82,1.55-0.53,3.98,0.86,7.23c2.34,5.47,5.87,10.53,10.19,14.63c1.4,1.33,1.46,3.55,0.13,4.95
									C525.55,1273.73,524.62,1274.1,523.69,1274.1z" class="color030047 svgShape"/><g class="color000000 svgShape"><path fill="#fff" d="M733.59,1177.67c7.33,10.18,27.94,37.4,35.26,47.58c4.42,6.14,8.94,12.54,9.68,19.85
									c0.74,7.31-3.45,15.82-11.8,18.76" class="colorffffff svgShape"/><path fill="#ff401c" d="M766.73,1267.36c-1.44,0-2.8-0.9-3.3-2.34c-0.64-1.82,0.32-3.82,2.14-4.47
									c6.91-2.43,10.04-9.59,9.48-15.1c-0.66-6.52-5.11-12.7-9.04-18.16c-3.66-5.08-10.62-14.41-17.59-23.74
									c-7-9.37-14-18.74-17.67-23.84c-1.13-1.57-0.77-3.76,0.8-4.89c1.57-1.12,3.76-0.77,4.89,0.8
									c3.66,5.08,10.62,14.41,17.59,23.74c7,9.37,14,18.74,17.67,23.84c4.44,6.17,9.48,13.16,10.32,21.55
									c0.85,8.37-3.73,18.75-14.12,22.41C767.51,1267.29,767.12,1267.36,766.73,1267.36z" class="color030047 svgShape"/></g><g class="color000000 svgShape"><path fill="#ff401c" d="M729.28,1301.1c-4.63,0-9.27-0.7-13.71-2.11c-11.35-3.6-21.02-11.73-26.53-22.28
									c-0.9-1.71-0.23-3.83,1.48-4.72c1.71-0.89,3.83-0.23,4.72,1.48c4.67,8.93,12.85,15.8,22.45,18.85
									c9.6,3.05,20.24,2.17,29.21-2.44c1.72-0.88,3.83-0.21,4.72,1.52c0.88,1.72,0.2,3.83-1.52,4.72
									C743.65,1299.41,736.47,1301.1,729.28,1301.1z" class="color030047 svgShape"/></g></g></g></g><g fill="#c07611" class="color000000 svgShape"><path fill="#fff" d="M859.33,2010.14l44.73-22.36c2.87-1.79,5.14-4.17,6.88-6.99c2.87-4.98,3.52-11.37,1.35-17.17
							c-4.22-11.43-17.55-16.41-28.38-10.72l-142.37,41.86l20.09,171.17" class="colorffffff svgShape"/><path fill="#ff401c" d="M761.63,2169.44c-1.75,0-3.27-1.31-3.47-3.09l-20.09-171.17c-0.2-1.69,0.86-3.29,2.49-3.77l142.04-41.76
							c6.04-3.06,13.07-3.43,19.35-1.01c6.31,2.42,11.28,7.45,13.62,13.79c2.46,6.58,1.86,14.11-1.61,20.13
							c-2.13,3.46-4.82,6.2-8.06,8.21l-45.01,22.52c-1.73,0.87-3.83,0.17-4.7-1.57c-0.86-1.73-0.16-3.83,1.57-4.7l44.73-22.36
							c2.02-1.28,3.96-3.24,5.46-5.69c2.38-4.14,2.8-9.44,1.06-14.1c-1.67-4.53-5.07-7.96-9.56-9.69c-4.52-1.74-9.58-1.43-13.9,0.84
							c-0.2,0.11-0.42,0.19-0.64,0.26l-139.53,41.02l19.74,168.24c0.22,1.92-1.15,3.66-3.07,3.89
							C761.9,2169.43,761.77,2169.44,761.63,2169.44z" class="color030047 svgShape"/><path fill="#ff401c" d="M996.56,1798h128.03c9.62,0,17.21-6.52,18.44-15.84l3.48-26.36c1.76-13.33-9.91-26.29-23.67-26.29H994.83
							c-9.62,0-17.21,6.52-18.44,15.84l-3.48,26.36C971.14,1785.03,982.81,1798,996.56,1798z" class="color030047 svgShape"/><path fill="#ff401c" d="M1124.6,1801.5H996.57c-7.69,0-15.17-3.5-20.51-9.6c-5.17-5.9-7.58-13.43-6.63-20.66l3.48-26.36
							c1.47-11.12,10.48-18.88,21.92-18.88h128.03c7.69,0,15.17,3.5,20.51,9.6c5.17,5.9,7.58,13.43,6.63,20.66l-3.48,26.36
							C1145.04,1793.74,1136.03,1801.5,1124.6,1801.5z M994.83,1733.01c-7.82,0-13.98,5.26-14.97,12.8l-3.48,26.36
							c-0.69,5.23,1.11,10.74,4.95,15.12c4.02,4.58,9.57,7.21,15.25,7.21h128.03c7.82,0,13.98-5.26,14.97-12.8l3.48-26.36
							c0.69-5.23-1.11-10.74-4.95-15.12c-4.02-4.58-9.57-7.21-15.25-7.21H994.83z" class="color030047 svgShape"/><path fill="#25e291" d="M1206.18,1763.75l-290.82,0.43c-12.53,0.02-23.1,9.32-24.7,21.74l-45.32,350.15
							c-1.93,14.94,9.71,28.17,24.78,28.15l290.82-0.42c12.53-0.02,23.1-9.32,24.7-21.74l45.32-350.15
							C1232.89,1776.96,1221.24,1763.73,1206.18,1763.75z" class="color605efd svgShape"/><path fill="#ff401c" d="M870.08,2167.72c-8.17,0-15.96-3.52-21.36-9.65c-5.41-6.15-7.91-14.33-6.86-22.45l45.32-350.15
							c1.83-14.12,13.94-24.78,28.17-24.8l290.82-0.42c0.01,0,0.03,0,0.04,0c8.17,0,15.95,3.52,21.35,9.65
							c5.41,6.15,7.91,14.33,6.86,22.45l-45.32,350.15c-1.83,14.12-13.94,24.78-28.17,24.8l-290.82,0.43
							C870.1,2167.72,870.09,2167.72,870.08,2167.72z M1206.18,1767.26l-290.82,0.42c-10.73,0.02-19.86,8.05-21.24,18.69
							l-45.32,350.15c-0.79,6.12,1.09,12.29,5.17,16.92c4.07,4.63,9.94,7.28,16.1,7.28c0.01,0,0.02,0,0.03,0l290.82-0.43
							c10.73-0.02,19.86-8.05,21.24-18.69l45.32-350.15c0.79-6.12-1.09-12.29-5.17-16.92c-4.07-4.63-9.93-7.28-16.09-7.28
							C1206.2,1767.26,1206.19,1767.26,1206.18,1767.26L1206.18,1767.26z M1206.18,1763.75h0.05H1206.18z" class="color030047 svgShape"/><path fill="#fff" d="M761.64,2165.94l184.82-2.65c5.79-0.87,10.51-5.09,13.21-9.8c1.9-3.19,2.87-6.82,2.49-10.72
							c-0.7-9.8-9.04-17.82-18.9-17.44h-33.47l62.27-0.33c7.09,0,13.97-3.52,17.65-9.69c0.05-0.05,0.05-0.11,0.05-0.11
							c1.9-3.19,2.87-6.87,2.49-10.72c-0.7-9.8-9.04-17.81-18.84-17.44h-63.63l95.04-0.33c5.79-0.87,10.45-5.15,13.21-9.86
							c1.9-3.14,2.82-6.82,2.49-10.67c-0.7-9.8-9.04-17.22-18.9-16.9l-91.84-0.87h66.77c5.79-0.86,10.51-5.14,13.21-9.85
							c1.9-3.14,2.87-6.82,2.49-10.67c-0.7-9.8-9.04-17.27-18.84-16.9l-114.1-0.87" class="colorffffff svgShape"/><path fill="#ff401c" d="M761.63,2169.44c-1.91,0-3.47-1.53-3.5-3.45c-0.03-1.93,1.52-3.53,3.45-3.55l184.57-2.65
							c4.07-0.69,7.97-3.68,10.48-8.05c1.65-2.78,2.33-5.68,2.04-8.64c-0.59-8.21-7.49-14.59-15.28-14.27l-33.6,0
							c-1.93,0-3.5-1.56-3.5-3.49s1.55-3.5,3.48-3.51l62.27-0.33c6.07,0,11.64-3.02,14.6-7.88c0.04-0.07,0.07-0.14,0.11-0.21
							c1.61-2.7,2.3-5.68,2.02-8.59c-0.59-8.22-7.45-14.6-15.22-14.28l-63.76,0c-1.93,0-3.5-1.56-3.5-3.5c0-1.93,1.56-3.5,3.49-3.51
							h0.01l94.75-0.33c3.98-0.69,7.88-3.71,10.48-8.13c1.59-2.63,2.28-5.59,2.02-8.6c-0.57-7.96-7.25-13.97-15.29-13.69
							l-91.99-0.86c-1.93-0.02-3.48-1.59-3.47-3.52c0.01-1.93,1.58-3.49,3.5-3.49h66.49c4.04-0.69,7.93-3.71,10.45-8.1
							c1.64-2.71,2.33-5.66,2.04-8.58c-0.58-8.05-7.26-13.98-15.22-13.74l-114.26-0.86c-1.93-0.01-3.49-1.59-3.47-3.53
							c0.01-1.93,1.48-3.53,3.53-3.48l114.1,0.87c11.51-0.42,21.47,8.4,22.31,20.15c0.43,4.34-0.6,8.77-2.98,12.73
							c-1.13,1.97-2.49,3.75-4.02,5.29l12.91,0.12c11.81-0.28,21.52,8.47,22.36,20.15c0.38,4.45-0.65,8.87-2.98,12.73
							c-3.74,6.37-9.47,10.58-15.69,11.51c-0.17,0.02-0.34,0.04-0.51,0.04l-15.28,0.05c3.49,3.66,5.81,8.54,6.2,13.95
							c0.42,4.28-0.58,8.68-2.91,12.65c-0.04,0.08-0.08,0.15-0.13,0.22l0,0c-4.19,7.03-12.11,11.4-20.66,11.4l-12.62,0.07
							c3.49,3.66,5.81,8.53,6.2,13.94c0.42,4.33-0.6,8.77-2.97,12.76c-3.58,6.24-9.46,10.54-15.71,11.48
							c-0.16,0.02-0.31,0.04-0.47,0.04l-184.82,2.65C761.67,2169.44,761.65,2169.44,761.63,2169.44z" class="color030047 svgShape"/><path fill="#ffbf66" d="M497.49,1478.05L497.49,1478.05c-63.69,22.63-110.39,77.62-122.42,144.13l-83.55,375.41
						c-20.55,92.32,49.7,179.91,144.27,179.91h331.86l-12.44-209.67l-229.46,5.9l55.31-242.85c7.13-28.88,4.32-59.31-7.98-86.39
						L497.49,1478.05z" class="colorffcc3d svgShape"/><g class="color000000 svgShape"><path fill="#ff401c" d="M767.65,2180.99H520.17c-1.93,0-3.5-1.57-3.5-3.5s1.57-3.5,3.5-3.5h243.77l-12.02-202.58l-226.07,5.81
						c-1.03,0.13-2.1-0.44-2.78-1.26c-0.69-0.82-0.96-1.92-0.74-2.96l35.43-168.35c0.4-1.89,2.27-3.11,4.15-2.71
						c1.89,0.4,3.11,2.26,2.71,4.15l-34.52,164.02l225.03-5.79c1.71-0.11,3.47,1.41,3.58,3.29l12.44,209.67
						c0.06,0.96-0.28,1.91-0.95,2.61C769.54,2180.6,768.61,2180.99,767.65,2180.99z" class="color030047 svgShape"/></g></g><g fill="#c07611" class="color000000 svgShape"><path fill="#ffbf66" d="M1003.65,745.11l21-63.93l-33.32-10.94c2.25-20.32,0.54-40.5-4.54-59.63l31.32-15.86l-30.37-60.06
								l-31.32,15.86c-12.38-15.47-27.64-28.77-45.33-39.01l10.94-33.32l-63.97-21.01l-10.94,33.32
								c-20.32-2.25-40.49-0.57-59.63,4.54l-15.82-31.34l-60.06,30.36l15.82,31.34c-15.43,12.4-28.77,27.64-39.01,45.33
								l-33.32-10.94l-21,63.93l33.32,10.94c-2.26,20.35-0.55,40.53,4.54,59.63l-31.32,15.86l30.37,60.06l31.32-15.86
								c12.39,15.46,27.64,28.77,45.33,39.01l-10.95,33.35l63.97,21.01l10.95-33.35c20.32,2.24,40.49,0.57,59.63-4.54l15.82,31.34
								l60.06-30.37l-15.82-31.34c15.42-12.36,28.76-27.61,39.01-45.33L1003.65,745.11z M806.26,748.59
								c-59.36-14.42-91.56-78.07-68-134.47c18.53-44.36,67.54-69.14,114.25-57.76c59.38,14.47,91.54,78.13,67.97,134.48
								C901.93,735.17,852.95,759.93,806.26,748.59z" class="colorffcc3d svgShape"/><polygon fill="#ff401c" points="802.16 696.74 773.27 654.85 796.33 638.94 809.32 657.77 869.63 616.16 885.54 639.22" class="color030047 svgShape"/></g><g fill="#c07611" class="color000000 svgShape"><path fill="#fff" d="M1677.46,1586.03c-16.86,1.25-32.99,4.76-48.16,10.19c-75.33,26.97-126.57,101.66-120.36,185.33
						c7.46,100.54,95.02,175.95,195.54,168.49c100.52-7.46,175.96-94.98,168.49-195.52
						C1865.52,1654.01,1777.98,1578.57,1677.46,1586.03z" class="colorffffff svgShape"/><path fill="#ff401c" d="M1690.68,1954.05c-44.51,0-87.08-15.76-121.14-45.11c-37.65-32.44-60.4-77.59-64.08-127.14
						c-6.17-83.14,44.27-160.81,122.67-188.88c15.76-5.65,32.27-9.14,49.08-10.39l0,0c102.23-7.59,191.68,69.44,199.27,171.73
						c3.68,49.56-12.16,97.57-44.59,135.21c-32.43,37.63-77.59,60.38-127.13,64.06C1700.04,1953.88,1695.35,1954.05,1690.68,1954.05
						z M1677.72,1589.52c-16.18,1.2-32.07,4.56-47.23,10c-75.44,27.02-123.99,101.76-118.05,181.77
						c3.54,47.69,25.44,91.14,61.67,122.35c36.22,31.21,82.45,46.46,130.12,42.91c47.69-3.54,91.13-25.43,122.35-61.65
						c31.21-36.22,46.45-82.43,42.91-130.12C1862.18,1656.35,1776.2,1582.22,1677.72,1589.52L1677.72,1589.52z" class="color030047 svgShape"/><path fill="#ff401c" d="M1677.46,1586.03c-16.86,1.25-32.99,4.76-48.16,10.19l61.67,171.81L1677.46,1586.03z" class="color030047 svgShape"/><path fill="#ffbf66" d="M1674.67,1548.52l16.3,219.51l219.53-16.3C1901.49,1630.49,1795.91,1539.52,1674.67,1548.52z" class="colorffcc3d svgShape"/><path fill="#ff401c" d="M1690.96,1771.53c-1.81,0-3.35-1.4-3.49-3.24l-16.3-219.51c-0.07-0.93,0.23-1.84,0.84-2.55
						c0.61-0.7,1.47-1.14,2.39-1.21c122.98-9.1,230.45,83.49,239.58,206.45c0.14,1.93-1.3,3.61-3.23,3.75l-219.53,16.3
						C1691.13,1771.53,1691.05,1771.53,1690.96,1771.53z M1678.42,1551.78l15.78,212.5l212.52-15.78
						C1896.23,1632.28,1794.85,1544.94,1678.42,1551.78z" class="color030047 svgShape"/></g><g fill="#c07611" class="color000000 svgShape"><path fill="#ffbf66" d="M1020,1115.2l-25.98,16.35c-12.19,7.6-28.22,3.96-35.84-8.15l-16.35-25.98
				c-7.62-12.11-3.98-28.14,8.13-35.76l26-16.44c12.11-7.62,28.13-3.98,35.84,8.15l16.33,26.07
				C1035.76,1091.55,1032.11,1107.57,1020,1115.2z" class="colorffcc3d svgShape"/></g><g fill="#c07611" class="color000000 svgShape"><path fill="#ffbf66" d="M370.33,1378.38l-19.03,11.98c-8.93,5.57-20.67,2.9-26.25-5.97l-11.98-19.03
				c-5.58-8.87-2.91-20.61,5.96-26.19l19.04-12.04c8.87-5.58,20.61-2.91,26.25,5.97l11.96,19.09
				C381.87,1361.05,379.2,1372.79,370.33,1378.38z" class="colorffcc3d svgShape"/></g><g fill="#c07611" class="color000000 svgShape"><path fill="#ffbf66" d="M445.33,843.41l-15.97,10.05c-7.5,4.67-17.35,2.43-22.04-5.01l-10.06-15.97c-4.69-7.45-2.45-17.3,5-21.99
				l15.99-10.11c7.45-4.69,17.3-2.45,22.04,5.01l10.04,16.03C455.02,828.87,452.78,838.72,445.33,843.41z" class="colorffcc3d svgShape"/></g><g fill="#c07611" class="color000000 svgShape"><path fill="#ffbf66" d="M2202.67,1051.99l17.27-7.62c8.1-3.53,17.52,0.12,21.07,8.16l7.62,17.27c3.55,8.05-0.1,17.47-8.15,21.03
				l-17.29,7.67c-8.05,3.55-17.47-0.1-21.07-8.16l-7.61-17.32C2190.98,1064.96,2194.62,1055.54,2202.67,1051.99z" class="colorffcc3d svgShape"/></g></svg>